<?xml version="1.0" encoding="UTF-8"?>
<svg xmlns="http://www.w3.org/2000/svg" version="1.1" xmlns:xlink="http://www.w3.org/1999/xlink" viewBox="0 0 456.45 208.57">
  <defs>
    <style>
      .cls-1 {
        fill: url(#linear-gradient);
      }
    </style>
    <linearGradient id="linear-gradient" x1="345.85" y1="83.98" x2="406.59" y2="121.89" gradientUnits="userSpaceOnUse">
      <stop offset="0" stop-color="#fff33b"/>
      <stop offset="0" stop-color="#feee3b"/>
      <stop offset="0" stop-color="#facc3c"/>
      <stop offset="0" stop-color="#f7b23d"/>
      <stop offset="0" stop-color="#f49f3e"/>
      <stop offset="0" stop-color="#f3933e"/>
      <stop offset="0" stop-color="#f3903f"/>
      <stop offset="1" stop-color="#ed1c24"/>
    </linearGradient>
  </defs>
  <!-- Generator: Adobe Illustrator 28.7.1, SVG Export Plug-In . SVG Version: 1.2.0 Build 142)  -->
  <g>
    <g id="Layer_1">
      <path class="cls-1" d="M406.07,103.52l-1.96,12.84c-.17,1.12-.78,2.2-1.7,3l-20.25,17.6-20.32,17.6c-.92.8-2.07,1.24-3.19,1.24h-12.84c-2.34,0-3.94-1.9-3.57-4.24l2.04-12.84c.18-1.12.8-2.2,1.71-3l20.32-17.6,20.25-17.6c.91-.8,2.06-1.24,3.17-1.24h12.77c2.33,0,3.93,1.9,3.57,4.24ZM410.94,52.6h-14.05c-.88,0-1.77.35-2.49.98l-20.56,17.86-20.63,17.86c-.72.62-1.21,1.47-1.35,2.35l-2.24,14.13c-.29,1.84.96,3.33,2.8,3.33h14.13c.88,0,1.78-.35,2.51-.97l20.63-17.86,20.56-17.86c.72-.62,1.2-1.47,1.33-2.35l2.16-14.13c.28-1.84-.97-3.33-2.8-3.33Z"/>
      <path d="M61.49,54.59h43.18c30.97,0,49.86,16.05,49.86,41.76,0,35.23-25.57,57.67-62.07,57.67h-50.85l19.89-99.43ZM93.31,131.57c21.02,0,32.81-14.49,32.81-33.52,0-13.21-8.38-21.02-24.57-21.02h-16.48l-10.8,54.54h19.03Z"/>
      <path d="M148.71,145.35l11.08-21.02c10.08,6.39,21.73,9.8,33.1,9.8s17.05-3.41,17.05-8.81c0-13.35-48.29-5.97-48.29-37.21,0-21.45,18.32-35.51,47.73-35.51,14.06,0,26.85,2.98,35.8,8.52l-10.23,20.88c-7.81-4.97-17.47-7.53-27.27-7.53-11.65,0-17.9,4.26-17.9,9.66-.14,13.64,48.29,5.82,48.29,36.51,0,21.31-18.75,35.37-47.87,35.37-17.05,0-32.53-4.54-41.48-10.65Z"/>
      <path d="M237.48,145.35l11.08-21.02c10.08,6.39,21.73,9.8,33.1,9.8s17.05-3.41,17.05-8.81c0-13.35-48.3-5.97-48.3-37.21,0-21.45,18.32-35.51,47.73-35.51,14.06,0,26.85,2.98,35.79,8.52l-10.23,20.88c-7.81-4.97-17.47-7.53-27.27-7.53-11.65,0-17.9,4.26-17.9,9.66-.14,13.64,48.29,5.82,48.29,36.51,0,21.31-18.75,35.37-47.87,35.37-17.05,0-32.53-4.54-41.48-10.65Z"/>
    </g>
  </g>
</svg>