<?xml version="1.0" encoding="UTF-8"?>
<svg xmlns="http://www.w3.org/2000/svg" version="1.1" xmlns:xlink="http://www.w3.org/1999/xlink" viewBox="0 0 432 432">
  <defs>
    <style>
      .cls-1 {
        fill: url(#linear-gradient);
      }
    </style>
    <linearGradient id="linear-gradient" x1="119.91" y1="155.53" x2="301.56" y2="268.9" gradientUnits="userSpaceOnUse">
      <stop offset="0" stop-color="#fff33b"/>
      <stop offset="0" stop-color="#feee3b"/>
      <stop offset="0" stop-color="#facc3c"/>
      <stop offset="0" stop-color="#f7b23d"/>
      <stop offset="0" stop-color="#f49f3e"/>
      <stop offset="0" stop-color="#f3933e"/>
      <stop offset="0" stop-color="#f3903f"/>
      <stop offset="1" stop-color="#ed1c24"/>
    </linearGradient>
  </defs>
  <!-- Generator: Adobe Illustrator 28.7.1, SVG Export Plug-In . SVG Version: 1.2.0 Build 142)  -->
  <g>
    <g id="Layer_1">
      <path class="cls-1" d="M299.99,213.99l-5.87,38.4c-.51,3.36-2.34,6.59-5.07,8.97l-60.57,52.62-60.76,52.62c-2.75,2.38-6.19,3.71-9.55,3.71h-38.4c-7,0-11.78-5.68-10.67-12.68l6.09-38.4c.53-3.36,2.38-6.59,5.13-8.97l60.76-52.62,60.57-52.62c2.73-2.38,6.15-3.71,9.49-3.71h38.18c6.96,0,11.74,5.68,10.67,12.68ZM314.57,61.68h-42.02c-2.62,0-5.3,1.05-7.45,2.92l-61.49,53.42-61.68,53.42c-2.16,1.87-3.61,4.4-4.03,7.04l-6.7,42.26c-.87,5.5,2.88,9.95,8.38,9.95h42.26c2.64,0,5.34-1.05,7.5-2.92l61.68-53.42,61.49-53.42c2.15-1.87,3.58-4.4,3.98-7.04l6.46-42.26c.84-5.5-2.91-9.96-8.38-9.96Z"/>
    </g>
  </g>
</svg>