<?xml version="1.0" encoding="UTF-8"?>
<svg xmlns="http://www.w3.org/2000/svg" version="1.1" viewBox="0 0 1004.24 208.57">
  <!-- Generator: Adobe Illustrator 28.7.1, SVG Export Plug-In . SVG Version: 1.2.0 Build 142)  -->
  <g>
    <g id="Layer_1">
      <g>
        <path d="M84.52,125.32c-.14.99-.28,1.85-.28,2.56,0,4.26,2.41,6.53,7.1,6.53,2.84,0,5.4-.85,8.1-2.27l3.41,18.61c-5.68,3.27-12.93,4.54-20.03,4.54-15.77,0-25.99-8.24-25.99-22.58,0-2.27.14-4.69.71-7.24l5.11-25.43h-11.36l4.12-20.17h11.22l3.98-20.03h26.99l-3.98,20.03h17.47l-3.98,20.17h-17.47l-5.11,25.28Z"/>
        <path d="M127.56,77.03h26.85l-15.34,76.99h-26.85l15.34-76.99ZM129.27,55.15c0-8.66,6.82-15.34,17.33-15.34,9.52,0,15.62,5.54,15.62,12.93,0,9.23-6.96,15.77-17.47,15.77-9.52,0-15.48-5.97-15.48-13.35Z"/>
        <path d="M246.88,101.88c0,2.98-.28,6.11-.99,9.52l-8.52,42.61h-26.99l7.95-40.06c.43-1.85.57-3.55.57-5.11,0-6.68-3.41-10.23-10.65-10.23-9.23,0-15.62,5.54-18.04,17.33l-7.67,38.07h-26.99l15.34-76.99h25.57l-1.56,7.95c6.82-6.39,15.62-9.23,24.15-9.23,16.48,0,27.84,8.95,27.84,26.14Z"/>
        <path d="M344.19,77.03l-49.29,80.4c-12.07,19.6-22.02,25.43-38.21,25.43-8.1,0-17.04-2.7-21.73-6.68l12.07-19.03c3.12,2.7,7.24,4.4,11.93,4.4,4.97,0,8.1-2.13,11.36-6.96l-17.47-77.56h26.85l9.66,47.3,28.41-47.3h26.42Z"/>
        <path d="M356.97,54.58h28.12l-15.34,77.13h47.44l-4.55,22.3h-75.57l19.89-99.43Z"/>
        <path d="M504.56,122.2h-56.53c.99,8.52,6.82,12.5,17.47,12.5,6.82,0,13.49-2.13,18.61-6.25l11.22,16.9c-9.66,7.1-21.16,9.94-32.81,9.94-24.72,0-40.91-13.64-40.91-35.08,0-25.57,18.89-44.46,46.59-44.46,23.44,0,37.93,13.64,37.93,33.81,0,4.54-.71,8.81-1.56,12.64ZM449.59,107.99h31.68c.14-8.24-5.68-13.07-14.35-13.07-9.09,0-14.77,5.4-17.33,13.07Z"/>
        <path d="M605.7,77.03l-15.34,76.99h-25.57l1.56-7.24c-5.97,5.54-13.35,8.52-22.3,8.52-16.62,0-32.53-12.64-32.53-35.08,0-25.57,18.75-44.46,41.76-44.46,10.37,0,18.75,3.12,23.58,10.51l1.85-9.23h26.99ZM571.75,112.11c0-8.95-5.4-14.77-14.63-14.77-10.65,0-18.32,8.67-18.32,21.59,0,8.95,5.4,14.63,14.63,14.63,10.8,0,18.32-8.67,18.32-21.45Z"/>
        <path d="M701.72,77.03l-12.5,62.78c-6.11,30.54-23.72,43.04-50.85,43.04-15.48,0-28.12-3.41-37.5-9.94l12.07-18.75c6.11,4.83,16.05,7.96,26.14,7.96,13.92,0,20.03-6.25,22.16-17.33l.57-2.56c-5.68,5.11-12.93,7.81-21.45,7.81-18.18,0-33.66-12.22-33.66-32.81,0-23.15,18.18-41.48,42.19-41.48,11.08,0,20.45,3.69,24.72,13.49l2.42-12.22h25.71ZM666.49,109.98c0-7.53-5.26-12.64-14.35-12.64-10.8,0-18.32,7.53-18.32,18.61,0,7.53,5.4,12.5,14.49,12.5,10.65,0,18.18-7.39,18.18-18.47Z"/>
        <path d="M794.33,77.03l-15.34,76.99h-25.57l1.56-7.95c-6.82,6.39-15.48,9.23-23.86,9.23-16.33,0-27.56-8.95-27.56-26.28,0-2.98.28-6.11.99-9.52l8.52-42.47h26.99l-7.95,39.91c-.43,1.99-.57,3.69-.57,5.26,0,6.53,3.41,10.09,10.37,10.09,9.09,0,15.48-5.54,17.76-17.19l7.67-38.07h26.99Z"/>
        <path d="M876.86,122.2h-56.53c.99,8.52,6.82,12.5,17.47,12.5,6.82,0,13.49-2.13,18.61-6.25l11.22,16.9c-9.66,7.1-21.17,9.94-32.81,9.94-24.72,0-40.91-13.64-40.91-35.08,0-25.57,18.89-44.46,46.59-44.46,23.44,0,37.93,13.64,37.93,33.81,0,4.54-.71,8.81-1.56,12.64ZM821.89,107.99h31.68c.14-8.24-5.68-13.07-14.35-13.07-9.09,0-14.77,5.4-17.33,13.07Z"/>
      </g>
      <path d="M953.86,103.52l-1.96,12.84c-.17,1.12-.78,2.2-1.7,3l-20.25,17.6-20.32,17.6c-.92.8-2.07,1.24-3.19,1.24h-12.84c-2.34,0-3.94-1.9-3.57-4.24l2.04-12.84c.18-1.12.8-2.2,1.71-3l20.32-17.6,20.25-17.6c.91-.8,2.06-1.24,3.17-1.24h12.77c2.33,0,3.93,1.9,3.57,4.24ZM958.74,52.6h-14.05c-.88,0-1.77.35-2.49.98l-20.56,17.86-20.63,17.86c-.72.62-1.21,1.47-1.35,2.35l-2.24,14.13c-.29,1.84.96,3.33,2.8,3.33h14.13c.88,0,1.78-.35,2.51-.97l20.63-17.86,20.56-17.86c.72-.62,1.2-1.47,1.33-2.35l2.16-14.13c.28-1.84-.97-3.33-2.8-3.33Z"/>
      <path d="M953.86,103.51l-1.96,12.84c-.17,1.12-.78,2.2-1.7,3l-20.25,17.6-20.32,17.6c-.92.8-2.07,1.24-3.19,1.24h-12.84c-2.34,0-3.94-1.9-3.57-4.24l2.04-12.84c.18-1.12.8-2.2,1.71-3l20.32-17.6,20.25-17.6c.91-.8,2.06-1.24,3.17-1.24h12.77c2.33,0,3.93,1.9,3.57,4.24ZM958.74,52.58h-14.05c-.88,0-1.77.35-2.49.98l-20.56,17.86-20.63,17.86c-.72.62-1.21,1.47-1.35,2.35l-2.24,14.13c-.29,1.84.96,3.33,2.8,3.33h14.13c.88,0,1.78-.35,2.51-.97l20.63-17.86,20.56-17.86c.72-.62,1.2-1.47,1.33-2.35l2.16-14.13c.28-1.84-.97-3.33-2.8-3.33Z"/>
    </g>
  </g>
</svg>