<svg xmlns="http://www.w3.org/2000/svg" version="1.1" viewBox="44.85 52.58 228.63 103.22">
  <defs>
    <style>
      .cls-1 {
        fill: #fff;
      }
    </style>

    <mask id="fade" maskContentUnits="objectBoundingBox">
      <rect width="1" height="1" fill="url(#fadeGrad)"/>
    </mask>
  </defs>
  <!-- Generator: Adobe Illustrator 28.7.1, SVG Export Plug-In . SVG Version: 1.2.0 Build 142)  -->
  <g>
    <g id="Layer_1">
      <path class="cls-1" d="M78.08,125.32c-.14.99-.28,1.85-.28,2.56,0,4.26,2.41,6.53,7.1,6.53,2.84,0,5.4-.85,8.1-2.27l3.41,18.61c-5.68,3.27-12.93,4.54-20.03,4.54-15.77,0-25.99-8.24-25.99-22.58,0-2.27.14-4.69.71-7.24l5.11-25.43h-11.36l4.12-20.17h11.22l3.98-20.03h26.99l-3.98,20.03h17.47l-3.98,20.17h-17.47l-5.11,25.28Z"/>
      <path class="cls-1" d="M122.23,54.58h28.12l-15.34,77.13h47.44l-4.55,22.3h-75.57l19.89-99.43Z"/>
      <path class="cls-1" d="M265.76,103.52l-1.96,12.84c-.17,1.12-.78,2.2-1.7,3l-20.25,17.6-20.32,17.6c-.92.8-2.07,1.24-3.19,1.24h-12.84c-2.34,0-3.94-1.9-3.57-4.24l2.04-12.84c.18-1.12.8-2.2,1.71-3l20.32-17.6,20.25-17.6c.91-.8,2.06-1.24,3.17-1.24h12.77c2.33,0,3.93,1.9,3.57,4.24ZM270.64,52.6h-14.05c-.88,0-1.77.35-2.49.98l-20.56,17.86-20.63,17.86c-.72.62-1.21,1.47-1.35,2.35l-2.24,14.13c-.29,1.84.96,3.33,2.8,3.33h14.13c.88,0,1.78-.35,2.51-.97l20.63-17.86,20.56-17.86c.72-.62,1.2-1.47,1.33-2.35l2.16-14.13c.28-1.84-.97-3.33-2.8-3.33Z"/>
      <path class="cls-1" d="M265.76,103.51l-1.96,12.84c-.17,1.12-.78,2.2-1.7,3l-20.25,17.6-20.32,17.6c-.92.8-2.07,1.24-3.19,1.24h-12.84c-2.34,0-3.94-1.9-3.57-4.24l2.04-12.84c.18-1.12.8-2.2,1.71-3l20.32-17.6,20.25-17.6c.91-.8,2.06-1.24,3.17-1.24h12.77c2.33,0,3.93,1.9,3.57,4.24ZM270.64,52.58h-14.05c-.88,0-1.77.35-2.49.98l-20.56,17.86-20.63,17.86c-.72.62-1.21,1.47-1.35,2.35l-2.24,14.13c-.29,1.84.96,3.33,2.8,3.33h14.13c.88,0,1.78-.35,2.51-.97l20.63-17.86,20.56-17.86c.72-.62,1.2-1.47,1.33-2.35l2.16-14.13c.28-1.84-.97-3.33-2.8-3.33Z"/>
    </g>
  </g>
</svg>